<svg width="100" height="163" viewBox="0 0 552 163" fill="none" xmlns="http://www.w3.org/2000/svg">
<rect x="178" y="163" width="70" height="10" transform="rotate(-180 178 163)" fill="white"/>
<rect x="178" y="93" width="70" height="10" transform="rotate(90 178 93)" fill="white"/>
<rect x="178" width="70" height="10" transform="rotate(90 178 0)" fill="white"/>
<rect x="108" width="70" height="10" fill="white"/>
<rect y="163" width="70" height="10" transform="rotate(-90 0 163)" fill="white"/>
<rect x="80" y="163" width="80" height="10" transform="rotate(-180 80 163)" fill="white"/>
<rect width="80" height="10" fill="white"/>
<rect y="70" width="70" height="10" transform="rotate(-90 0 70)" fill="white"/>
<path d="M58.5455 131L74 37.9091H104.045C110.652 37.9091 115.97 39.1667 120 41.6818C124.03 44.197 126.803 47.6212 128.318 51.9545C129.864 56.2879 130.182 61.1818 129.273 66.6364C128.394 72.0303 126.455 76.9091 123.455 81.2727C120.485 85.6061 116.561 89.0455 111.682 91.5909C106.833 94.1364 101.136 95.4091 94.5909 95.4091H70.9545L72.2273 87.7727H95.6364C100.515 87.7727 104.712 86.8636 108.227 85.0455C111.773 83.197 114.606 80.6818 116.727 77.5C118.848 74.2879 120.242 70.6667 120.909 66.6364C121.576 62.5455 121.364 58.9091 120.273 55.7273C119.212 52.5455 117.212 50.0606 114.273 48.2727C111.364 46.4545 107.455 45.5454 102.545 45.5454H81.2273L67.0455 131H58.5455Z" fill="white"/>
</svg>
