<svg width="552" height="163" viewBox="0 0 552 163" fill="none" xmlns="http://www.w3.org/2000/svg">
<rect x="178" y="163" width="70" height="10" transform="rotate(-180 178 163)" fill="white"/>
<rect x="178" y="93" width="70" height="10" transform="rotate(90 178 93)" fill="white"/>
<rect x="178" width="70" height="10" transform="rotate(90 178 0)" fill="white"/>
<rect x="108" width="70" height="10" fill="white"/>
<rect y="163" width="70" height="10" transform="rotate(-90 0 163)" fill="white"/>
<rect x="80" y="163" width="80" height="10" transform="rotate(-180 80 163)" fill="white"/>
<rect width="80" height="10" fill="white"/>
<rect y="70" width="70" height="10" transform="rotate(-90 0 70)" fill="white"/>
<path d="M58.5455 131L74 37.9091H104.045C110.652 37.9091 115.97 39.1667 120 41.6818C124.03 44.197 126.803 47.6212 128.318 51.9545C129.864 56.2879 130.182 61.1818 129.273 66.6364C128.394 72.0303 126.455 76.9091 123.455 81.2727C120.485 85.6061 116.561 89.0455 111.682 91.5909C106.833 94.1364 101.136 95.4091 94.5909 95.4091H70.9545L72.2273 87.7727H95.6364C100.515 87.7727 104.712 86.8636 108.227 85.0455C111.773 83.197 114.606 80.6818 116.727 77.5C118.848 74.2879 120.242 70.6667 120.909 66.6364C121.576 62.5455 121.364 58.9091 120.273 55.7273C119.212 52.5455 117.212 50.0606 114.273 48.2727C111.364 46.4545 107.455 45.5454 102.545 45.5454H81.2273L67.0455 131H58.5455Z" fill="white"/>
<path d="M237.545 131L253 37.9091H283.045C289.652 37.9091 294.97 39.1667 299 41.6818C303.03 44.197 305.803 47.6212 307.318 51.9545C308.864 56.2879 309.182 61.1818 308.273 66.6364C307.394 72.0303 305.455 76.9091 302.455 81.2727C299.485 85.6061 295.561 89.0455 290.682 91.5909C285.833 94.1364 280.136 95.4091 273.591 95.4091H249.955L251.227 87.7727H274.636C279.515 87.7727 283.712 86.8636 287.227 85.0455C290.773 83.197 293.606 80.6818 295.727 77.5C297.848 74.2879 299.242 70.6667 299.909 66.6364C300.576 62.5455 300.364 58.9091 299.273 55.7273C298.212 52.5455 296.212 50.0606 293.273 48.2727C290.364 46.4545 286.455 45.5454 281.545 45.5454H260.227L246.045 131H237.545ZM379.591 61.6818C379.803 56.2273 378.182 51.9545 374.727 48.8636C371.303 45.7727 366.5 44.2273 360.318 44.2273C356.015 44.2273 352.076 44.9848 348.5 46.5C344.955 47.9848 342.03 50.0303 339.727 52.6364C337.455 55.2424 336.045 58.2121 335.5 61.5455C335.106 64 335.288 66.1515 336.045 68C336.803 69.8182 337.97 71.3939 339.545 72.7273C341.121 74.0606 342.924 75.197 344.955 76.1364C347.015 77.0758 349.106 77.8636 351.227 78.5L360.636 81.3182C363.424 82.1364 366.197 83.1818 368.955 84.4545C371.712 85.7273 374.167 87.3182 376.318 89.2273C378.47 91.1364 380.061 93.4848 381.091 96.2727C382.152 99.0606 382.364 102.394 381.727 106.273C380.879 111.303 378.848 115.803 375.636 119.773C372.455 123.712 368.273 126.833 363.091 129.136C357.909 131.439 351.924 132.591 345.136 132.591C338.803 132.591 333.47 131.545 329.136 129.455C324.803 127.333 321.606 124.409 319.545 120.682C317.485 116.955 316.697 112.636 317.182 107.727H325.909C325.576 111.394 326.258 114.5 327.955 117.045C329.682 119.591 332.136 121.53 335.318 122.864C338.53 124.167 342.227 124.818 346.409 124.818C351.045 124.818 355.303 124.045 359.182 122.5C363.061 120.924 366.258 118.742 368.773 115.955C371.318 113.136 372.894 109.864 373.5 106.136C374.045 102.985 373.667 100.333 372.364 98.1818C371.091 96.0303 369.106 94.2273 366.409 92.7727C363.742 91.2879 360.561 89.9848 356.864 88.8636L346.227 85.5909C339.288 83.4697 334.121 80.4848 330.727 76.6364C327.364 72.7879 326.167 67.8788 327.136 61.9091C327.985 56.8788 330.061 52.4697 333.364 48.6818C336.697 44.8636 340.833 41.8939 345.773 39.7727C350.712 37.6515 356.045 36.5909 361.773 36.5909C367.561 36.5909 372.485 37.6667 376.545 39.8182C380.636 41.9697 383.667 44.9394 385.636 48.7273C387.636 52.4848 388.379 56.803 387.864 61.6818H379.591ZM460.091 61.6818C460.303 56.2273 458.682 51.9545 455.227 48.8636C451.803 45.7727 447 44.2273 440.818 44.2273C436.515 44.2273 432.576 44.9848 429 46.5C425.455 47.9848 422.53 50.0303 420.227 52.6364C417.955 55.2424 416.545 58.2121 416 61.5455C415.606 64 415.788 66.1515 416.545 68C417.303 69.8182 418.47 71.3939 420.045 72.7273C421.621 74.0606 423.424 75.197 425.455 76.1364C427.515 77.0758 429.606 77.8636 431.727 78.5L441.136 81.3182C443.924 82.1364 446.697 83.1818 449.455 84.4545C452.212 85.7273 454.667 87.3182 456.818 89.2273C458.97 91.1364 460.561 93.4848 461.591 96.2727C462.652 99.0606 462.864 102.394 462.227 106.273C461.379 111.303 459.348 115.803 456.136 119.773C452.955 123.712 448.773 126.833 443.591 129.136C438.409 131.439 432.424 132.591 425.636 132.591C419.303 132.591 413.97 131.545 409.636 129.455C405.303 127.333 402.106 124.409 400.045 120.682C397.985 116.955 397.197 112.636 397.682 107.727H406.409C406.076 111.394 406.758 114.5 408.455 117.045C410.182 119.591 412.636 121.53 415.818 122.864C419.03 124.167 422.727 124.818 426.909 124.818C431.545 124.818 435.803 124.045 439.682 122.5C443.561 120.924 446.758 118.742 449.273 115.955C451.818 113.136 453.394 109.864 454 106.136C454.545 102.985 454.167 100.333 452.864 98.1818C451.591 96.0303 449.606 94.2273 446.909 92.7727C444.242 91.2879 441.061 89.9848 437.364 88.8636L426.727 85.5909C419.788 83.4697 414.621 80.4848 411.227 76.6364C407.864 72.7879 406.667 67.8788 407.636 61.9091C408.485 56.8788 410.561 52.4697 413.864 48.6818C417.197 44.8636 421.333 41.8939 426.273 39.7727C431.212 37.6515 436.545 36.5909 442.273 36.5909C448.061 36.5909 452.985 37.6667 457.045 39.8182C461.136 41.9697 464.167 44.9394 466.136 48.7273C468.136 52.4848 468.879 56.803 468.364 61.6818H460.091ZM478.545 131L494 37.9091H524.045C530.652 37.9091 535.97 39.1667 540 41.6818C544.03 44.197 546.803 47.6212 548.318 51.9545C549.864 56.2879 550.182 61.1818 549.273 66.6364C548.394 72.0303 546.455 76.9091 543.455 81.2727C540.485 85.6061 536.561 89.0455 531.682 91.5909C526.833 94.1364 521.136 95.4091 514.591 95.4091H490.955L492.227 87.7727H515.636C520.515 87.7727 524.712 86.8636 528.227 85.0455C531.773 83.197 534.606 80.6818 536.727 77.5C538.848 74.2879 540.242 70.6667 540.909 66.6364C541.576 62.5455 541.364 58.9091 540.273 55.7273C539.212 52.5455 537.212 50.0606 534.273 48.2727C531.364 46.4545 527.455 45.5454 522.545 45.5454H501.227L487.045 131H478.545Z" fill="white"/>
</svg>
